<?xml version="1.0" standalone="no"?>
<!DOCTYPE svg PUBLIC "-//W3C//DTD SVG 20010904//EN"
 "http://www.w3.org/TR/2001/REC-SVG-20010904/DTD/svg10.dtd">
<svg version="1.0" xmlns="http://www.w3.org/2000/svg"
 width="191.000000pt" height="191.000000pt" viewBox="0 0 191.000000 191.000000"
 preserveAspectRatio="xMidYMid meet">
<metadata>
Created by potrace 1.14, written by Peter Selinger 2001-2017
</metadata>
<g transform="translate(0.000000,191.000000) scale(0.100000,-0.100000)"
fill="#000000" stroke="none">
<path d="M0 1049 c0 -816 1 -861 17 -854 34 14 112 27 128 22 8 -4 15 -12 14
-19 0 -10 -2 -10 -6 0 -9 22 -19 13 -47 -42 -31 -61 -59 -156 -45 -156 4 0 13
18 19 41 15 53 31 89 41 89 5 0 6 -8 2 -18 -3 -9 3 -6 12 8 10 14 20 27 22 29
1 2 12 -8 24 -23 14 -18 28 -26 40 -23 10 3 24 -1 30 -9 10 -12 9 -13 -4 -8
-12 4 -17 -3 -23 -31 -4 -23 -2 -41 5 -48 8 -8 11 -6 11 7 0 9 4 15 9 12 5 -4
12 0 14 6 4 8 8 4 13 -10 5 -16 13 -22 28 -20 17 2 24 15 36 63 21 84 31 98
63 90 15 -4 24 -11 21 -16 -3 -5 4 -9 15 -9 23 0 38 -19 24 -29 -6 -3 -13 -19
-17 -36 -4 -16 -9 -38 -12 -47 -5 -17 6 -18 125 -18 90 0 131 3 131 11 0 8 4
8 13 1 9 -7 203 -11 610 -12 l597 -1 0 956 0 955 -955 0 -955 0 0 -861z m1189
767 c7 -8 14 -29 17 -48 5 -28 0 -40 -35 -80 -23 -25 -41 -56 -41 -67 0 -24
-18 -28 -26 -6 -11 27 6 64 35 79 16 9 31 24 33 34 14 52 -51 71 -92 27 -29
-31 -46 -19 -29 19 22 49 111 75 138 42z m205 -110 c48 -20 61 -96 20 -121
-41 -25 -74 -58 -74 -76 0 -10 -4 -19 -10 -19 -5 0 -10 17 -10 38 0 31 6 43
30 60 57 43 23 106 -36 67 -13 -9 -29 -13 -33 -10 -14 8 -1 44 22 60 27 19 48
19 91 1z m-256 -163 c5 -17 -26 -29 -40 -15 -6 6 -7 15 -3 22 9 14 37 9 43 -7z
m205 -108 c7 -18 -6 -27 -27 -19 -19 7 -21 20 -3 27 20 9 25 8 30 -8z m-767
-105 c-1 -20 -8 -32 -25 -40 -22 -10 -23 -9 -17 17 6 20 28 48 42 53 1 0 1
-13 0 -30z m152 -120 c12 -7 5 -8 -28 -3 -25 4 -57 8 -72 8 -14 0 -24 4 -21 9
7 11 97 1 121 -14z m-258 -29 c-26 -22 -44 -29 -69 -27 -42 2 -49 16 -19 35
21 13 22 13 9 -2 -18 -22 -3 -21 45 3 57 28 73 24 34 -9z m49 -26 c-12 -19
-23 -35 -26 -35 -2 0 -2 4 1 8 2 4 1 14 -4 22 -7 11 -9 6 -8 -15 2 -33 -12
-115 -19 -115 -16 0 -63 44 -62 58 1 15 2 15 6 0 7 -27 23 -21 21 7 -2 18 -7
24 -18 21 -8 -3 -7 0 4 7 10 7 39 29 63 50 52 44 70 40 42 -8z m1359 -35 c-7
-10 -14 -17 -17 -15 -4 4 18 35 25 35 2 0 -1 -9 -8 -20z m-1630 -45 c-3 -3 -9
2 -12 12 -6 14 -5 15 5 6 7 -7 10 -15 7 -18z m36 -160 c18 -22 36 -50 40 -62
4 -12 26 -38 48 -58 23 -19 35 -35 27 -35 -19 0 -84 66 -99 100 -6 14 -22 40
-35 59 -19 26 -25 45 -23 80 l1 46 4 -45 c3 -32 14 -56 37 -85z m360 76 c3 -5
-2 -15 -12 -22 -15 -12 -16 -12 -5 2 7 9 10 19 6 22 -3 4 -4 7 0 7 3 0 8 -4
11 -9z m166 -17 c0 -22 -2 -25 -15 -14 -17 14 -21 35 -5 25 6 -3 10 -1 10 4 0
6 2 11 5 11 3 0 5 -12 5 -26z m-68 -9 c3 3 8 -3 11 -14 7 -27 -17 -17 -39 17
-17 27 -17 27 3 9 11 -9 22 -15 25 -12z m131 -17 c10 -16 14 -28 9 -28 -8 0
-32 43 -32 57 0 7 1 6 23 -29z m-178 -6 c-3 -9 -3 -13 0 -10 4 4 27 -4 53 -18
25 -13 47 -22 49 -20 3 2 -3 17 -13 33 -14 23 -11 21 18 -9 41 -43 52 -48 42
-15 l-7 22 23 -20 c13 -11 20 -14 16 -7 -4 7 -1 12 9 12 8 0 20 10 25 23 6 15
9 17 9 6 1 -9 -6 -22 -14 -29 -34 -29 -2 -90 48 -90 10 0 21 -10 26 -22 6 -17
9 -18 14 -5 3 9 -1 18 -10 21 -12 5 -13 9 -3 21 18 21 29 19 23 -5 -3 -12 0
-20 6 -20 7 0 9 6 5 13 -5 9 -4 9 6 0 11 -10 17 -8 32 15 10 15 18 23 18 19 0
-19 -34 -57 -51 -57 -21 0 -27 -30 -6 -31 6 0 3 -5 -8 -10 -16 -7 -12 -8 18
-6 20 2 37 -1 37 -5 0 -4 -8 -8 -17 -8 -15 0 -16 -2 -3 -10 13 -8 13 -10 -2
-10 -9 0 -20 -5 -24 -12 -5 -8 -1 -9 12 -5 16 6 16 4 -3 -12 -12 -10 -19 -21
-16 -25 10 -9 25 -7 19 3 -3 5 1 11 9 14 11 5 12 1 6 -16 -6 -15 -17 -22 -34
-22 -15 -1 -30 -5 -34 -9 -4 -5 3 -5 17 -1 16 5 21 4 15 -2 -19 -19 -145 -63
-178 -63 -32 0 -96 26 -131 52 -18 14 -18 16 -2 40 22 33 5 46 -30 23 -30 -19
-28 -20 -43 24 -17 52 -14 61 19 61 35 0 41 17 8 22 -18 2 -24 12 -29 43 -4
23 -2 48 4 60 6 11 11 27 12 35 0 16 44 42 58 33 4 -3 6 -12 2 -21z m-100 -3
c10 -30 0 -33 -13 -4 -6 14 -7 25 -2 25 5 0 12 -9 15 -21z m-45 -13 c0 -8 3
-23 6 -33 5 -13 4 -15 -5 -7 -15 14 -23 54 -10 54 5 0 9 -6 9 -14z m40 -251
c0 -5 -5 -3 -10 5 -5 8 -10 20 -10 25 0 6 5 3 10 -5 5 -8 10 -19 10 -25z m90
-4 c0 -16 -72 -79 -85 -75 -7 3 -15 -2 -19 -12 -4 -11 5 -27 31 -51 36 -33 36
-33 3 -8 -20 16 -36 23 -38 16 -2 -6 -11 -11 -20 -11 -13 0 -13 -2 2 -13 14
-11 16 -18 9 -33 -6 -10 -8 -25 -6 -31 3 -7 0 -13 -6 -13 -6 0 -11 -7 -11 -16
0 -22 -61 -77 -72 -66 -8 8 -2 41 29 160 14 50 19 55 96 107 89 60 87 59 87
46z m-254 -58 c13 -14 23 -28 21 -30 -8 -8 -37 10 -37 22 0 7 -12 18 -27 23
-26 10 -26 10 -5 11 13 1 34 -11 48 -26z m194 -53 c14 -10 23 -21 20 -23 -3
-3 -18 6 -33 19 -33 28 -23 32 13 4z m-14 -61 c28 -29 28 -30 5 -21 -13 5 -28
18 -32 30 -11 29 -8 28 27 -9z m-29 -81 c-3 -8 -6 -5 -6 6 -1 11 2 17 5 13 3
-3 4 -12 1 -19z m-147 -66 c3 -3 -1 -7 -7 -9 -9 -3 -10 -10 -3 -24 18 -32 -14
-12 -34 22 l-18 30 29 -7 c15 -4 30 -9 33 -12z m56 -59 c1 -18 -10 -16 -30 6
-23 26 -12 46 12 23 10 -9 18 -23 18 -29z m-150 -90 c-7 -7 -26 7 -26 19 0 6
6 6 15 -2 9 -7 13 -15 11 -17z m-196 -43 c-6 -11 -13 -20 -16 -20 -2 0 0 9 6
20 6 11 13 20 16 20 2 0 0 -9 -6 -20z"/>
<path d="M425 1170 c-3 -5 -2 -10 4 -10 5 0 13 5 16 10 3 6 2 10 -4 10 -5 0
-13 -4 -16 -10z"/>
<path d="M460 1128 c-1 -5 -3 -12 -4 -17 0 -5 -5 -13 -10 -18 -5 -4 -6 -3 -2
4 3 6 2 14 -3 17 -11 7 -9 -13 4 -33 5 -10 4 -16 -3 -19 -7 -2 -10 -8 -6 -13
10 -17 21 -9 20 14 -1 12 2 25 7 28 5 4 7 15 4 25 -3 11 -6 16 -7 12z"/>
<path d="M651 906 c-17 -20 -10 -77 10 -89 21 -13 45 8 55 47 11 45 -37 76
-65 42z"/>
<path d="M733 822 c-20 -27 -20 -32 -7 -48 14 -18 15 -18 9 2 -3 14 1 28 10
38 9 9 15 21 13 27 -2 5 -13 -3 -25 -19z"/>
<path d="M773 692 c-13 -2 -23 -8 -23 -14 0 -6 9 -8 23 -3 29 9 39 9 57 1 9
-4 24 0 34 7 17 12 14 14 -25 13 -24 0 -54 -2 -66 -4z"/>
</g>
</svg>
